<?xml version="1.0" standalone="no"?><!DOCTYPE svg PUBLIC "-//W3C//DTD SVG 1.1//EN"
        "http://www.w3.org/Graphics/SVG/1.1/DTD/svg11.dtd">
<svg t="1681439559537" class="icon" viewBox="0 0 1024 1024" version="1.1" xmlns="http://www.w3.org/2000/svg" p-id="3992"
     xmlns:xlink="http://www.w3.org/1999/xlink" width="13" height="13">
    <path d="M160 96h192a34.730667 34.730667 0 0 1 23.04 10.026667c5.973333 5.973333 8.96 13.525333 8.96 22.485333 0 8.96-2.986667 16.469333-8.96 22.485333a30.976 30.976 0 0 1-23.04 9.002667h-192v192a31.146667 31.146667 0 0 1-8.96 23.04A31.146667 31.146667 0 0 1 128 384a31.146667 31.146667 0 0 1-23.04-8.96 31.146667 31.146667 0 0 1-8.96-23.04v-256h64z m0 832h-64v-256a31.146667 31.146667 0 0 1 8.96-23.04A31.146667 31.146667 0 0 1 128 640a31.146667 31.146667 0 0 1 23.04 8.96c5.973333 6.016 8.96 13.696 8.96 23.04v192h192a31.146667 31.146667 0 0 1 23.04 8.96c5.973333 6.016 8.96 13.525333 8.96 22.528 0 9.002667-2.986667 16.512-8.96 22.485333a34.986667 34.986667 0 0 1-23.04 10.026667h-192z m704-832h64v256a31.146667 31.146667 0 0 1-8.96 23.04A31.146667 31.146667 0 0 1 896 384a31.146667 31.146667 0 0 1-23.04-8.96 31.146667 31.146667 0 0 1-8.96-23.04v-192h-192a31.146667 31.146667 0 0 1-23.04-8.96 30.506667 30.506667 0 0 1-8.96-22.528c0-9.002667 2.986667-16.512 8.96-22.485333 6.016-5.973333 13.696-9.344 23.04-10.026667h192z m0 832h-192a34.773333 34.773333 0 0 1-23.04-10.026667 30.592 30.592 0 0 1-8.96-22.485333c0-8.96 2.986667-16.469333 8.96-22.485333a30.976 30.976 0 0 1 23.04-9.002667h192v-192a31.146667 31.146667 0 0 1 8.96-23.04A31.146667 31.146667 0 0 1 896 640a31.146667 31.146667 0 0 1 23.04 8.96c5.973333 6.016 8.96 13.696 8.96 23.04v256h-64z"
          fill="#afb1b3" fill-opacity=".96" p-id="3993"></path>
</svg>